<?xml version="1.0" encoding="UTF-8"?>
<!DOCTYPE svg PUBLIC "-//W3C//DTD SVG 1.1//EN" "http://www.w3.org/Graphics/SVG/1.1/DTD/svg11.dtd">
<!-- Creator: CorelDRAW 2020 (64-Bit) -->
<svg xmlns="http://www.w3.org/2000/svg" xml:space="preserve" width="0.238in" height="0.238in" version="1.1" style="shape-rendering:geometricPrecision; text-rendering:geometricPrecision; image-rendering:optimizeQuality; fill-rule:evenodd; clip-rule:evenodd"
viewBox="0 0 238 238"
 xmlns:xlink="http://www.w3.org/1999/xlink"
 xmlns:xodm="http://www.corel.com/coreldraw/odm/2003">
 <defs>
  <style type="text/css">
   <![CDATA[
    .fil0 {fill:#727376;fill-rule:nonzero}
   ]]>
  </style>
 </defs>
 <g id="Layer_x0020_1">
  <metadata id="CorelCorpID_0Corel-Layer"/>
  <g>
   <path class="fil0" d="M2.37 -2.57l0 6.94 -3.47 0 0 -6.94 3.47 0zm26.43 0l0 6.94 -6.61 0 0 -6.94 6.61 0zm26.43 0l0 6.94 -6.6 0 0 -6.94 6.6 0zm26.43 0l0 6.94 -6.61 0 0 -6.94 6.61 0zm26.43 0l0 6.94 -6.61 0 0 -6.94 6.61 0zm26.43 0l0 6.94 -6.61 0 0 -6.94 6.61 0zm26.43 0l0 6.94 -6.61 0 0 -6.94 6.61 0zm26.43 0l0 6.94 -6.61 0 0 -6.94 6.61 0zm26.43 0l0 6.94 -6.61 0 0 -6.94 6.61 0zm23.3 6.94l-3.48 0 0 -6.94 3.48 0 3.47 3.47 -3.47 3.47zm3.47 0l-6.94 0 0 -3.47 6.94 0 0 3.47zm0 26.43l-6.94 0 0 -6.61 6.94 0 0 6.61zm0 26.43l-6.94 0 0 -6.6 6.94 0 0 6.6zm0 26.43l-6.94 0 0 -6.61 6.94 0 0 6.61zm0 26.43l-6.94 0 0 -6.61 6.94 0 0 6.61zm0 26.43l-6.94 0 0 -6.61 6.94 0 0 6.61zm0 26.43l-6.94 0 0 -6.61 6.94 0 0 6.61zm0 26.43l-6.94 0 0 -6.61 6.94 0 0 6.61zm0 26.43l-6.94 0 0 -6.61 6.94 0 0 6.61zm-6.94 23.3l0 -3.48 6.94 0 0 3.48 -3.47 3.47 -3.47 -3.47zm0 3.47l0 -6.94 3.47 0 0 6.94 -3.47 0zm-26.43 0l0 -6.94 6.61 0 0 6.94 -6.61 0zm-26.43 0l0 -6.94 6.6 0 0 6.94 -6.6 0zm-26.43 0l0 -6.94 6.61 0 0 6.94 -6.61 0zm-26.43 0l0 -6.94 6.61 0 0 6.94 -6.61 0zm-26.43 0l0 -6.94 6.61 0 0 6.94 -6.61 0zm-26.43 0l0 -6.94 6.61 0 0 6.94 -6.61 0zm-26.43 0l0 -6.94 6.61 0 0 6.94 -6.61 0zm-26.43 0l0 -6.94 6.61 0 0 6.94 -6.61 0zm-23.3 -6.94l3.48 0 0 6.94 -3.48 0 -3.47 -3.47 3.47 -3.47zm-3.47 0l6.94 0 0 3.47 -6.94 0 0 -3.47zm0 -26.43l6.94 0 0 6.61 -6.94 0 0 -6.61zm0 -26.43l6.94 0 0 6.6 -6.94 0 0 -6.6zm0 -26.43l6.94 0 0 6.61 -6.94 0 0 -6.61zm0 -26.43l6.94 0 0 6.61 -6.94 0 0 -6.61zm0 -26.43l6.94 0 0 6.61 -6.94 0 0 -6.61zm0 -26.43l6.94 0 0 6.61 -6.94 0 0 -6.61zm0 -26.43l6.94 0 0 6.61 -6.94 0 0 -6.61zm0 -26.43l6.94 0 0 6.61 -6.94 0 0 -6.61zm6.94 -23.3l0 3.48 -6.94 0 0 -3.48 3.47 -3.47 3.47 3.47z"/>
  </g>
 </g>
</svg>
